ffmpeg started on 2025-05-12 at 21:05:29
Report written to "D:\Convert\FFMetrics\reports\psnr_report-6.txt"
Log level: 32
Command line:
ffmpeg -hide_banner -nostdin -i "G:\\\xc0\xed\xe8\xec\xe5\\\xce\xed\xe3\xee\xe8\xed\xe3\xe8\\!_35_\xcb\xe5\xf2\xee_2024\\DreamCast-1\\\xd1\xe0\xec\xfb\xe9 \xf1\xe8\xeb\xfc\xed\xfb\xe9 \xe2\xee\xeb\xf8\xe5\xe1\xed\xe8\xea \xe0\xf0\xec\xe8\xe8 \xef\xee\xe2\xe5\xeb\xe8\xf2\xe5\xeb\xff \xe4\xe5\xec\xee\xed\xee\xe2 \xee\xea\xe0\xe7\xe0\xeb\xf1\xff \xf7\xe5\xeb\xee\xe2\xe5\xea\xee\xec\\DC_Maou_Gun_Saikyou_no_Majutsushi_wa_Ningen_datta_01_Telegram_HEVC.mkv" -i "G:\\\xc0\xed\xe8\xec\xe5\\\xce\xed\xe3\xee\xe8\xed\xe3\xe8\\!_35_\xcb\xe5\xf2\xee_2024\\DreamCast-1\\\xd1\xe0\xec\xfb\xe9 \xf1\xe8\xeb\xfc\xed\xfb\xe9 \xe2\xee\xeb\xf8\xe5\xe1\xed\xe8\xea \xe0\xf0\xec\xe8\xe8 \xef\xee\xe2\xe5\xeb\xe8\xf2\xe5\xeb\xff \xe4\xe5\xec\xee\xed\xee\xe2 \xee\xea\xe0\xe7\xe0\xeb\xf1\xff \xf7\xe5\xeb\xee\xe2\xe5\xea\xee\xec\\DC_Maou_Gun_Saikyou_no_Majutsushi_wa_Ningen_datta_01_Telegram.mp4" -lavfi "[0:v]settb=AVTB,setpts=PTS-STARTPTS,format=pix_fmts=yuv420p10,fps=24000/1001,scale=1920:1080:flags=bicubic[main];[1:v]settb=AVTB,setpts=PTS-STARTPTS,format=pix_fmts=yuv420p,fps=24000/1001,scale=1920:1080:flags=bicubic[ref];[main][ref]psnr=eof_action=endall:stats_file='D\\:/Convert/FFMetrics/logs/psnr_logfile-6.txt'" -f null -
Input #0, matroska,webm, from 'G:\Аниме\Онгоинги\!_35_Лето_2024\DreamCast-1\Самый сильный волшебник армии повелителя демонов оказался человеком\DC_Maou_Gun_Saikyou_no_Majutsushi_wa_Ningen_datta_01_Telegram_HEVC.mkv':
  Metadata:
    COMPATIBLE_BRANDS: isomiso2avc1mp41
    MAJOR_BRAND     : isom
    MINOR_VERSION   : 512
    ENCODER         : Lavf61.7.100
  Duration: 00:23:46.77, start: -0.021000, bitrate: 885 kb/s
  Stream #0:0: Video: hevc (Main 10), yuv420p10le(tv, bt709, progressive), 1920x1080 [SAR 1:1 DAR 16:9], 23.98 fps, 23.98 tbr, 1k tbn (default)
      Metadata:
        HANDLER_NAME    : VideoHandler
        VENDOR_ID       : [0][0][0][0]
        ENCODER         : Lavc61.19.100 libx265
        BPS             : 688265
        DURATION        : 00:23:46.591708333
        NUMBER_OF_FRAMES: 34204
        NUMBER_OF_BYTES : 122734156
        _STATISTICS_WRITING_APP: mkvpropedit v66.0.0 ('Josie') 64-bit
        _STATISTICS_WRITING_DATE_UTC: 2025-05-10 14:52:30
        _STATISTICS_TAGS: BPS DURATION NUMBER_OF_FRAMES NUMBER_OF_BYTES
  Stream #0:1: Audio: aac (LC), 48000 Hz, stereo, fltp (default)
      Metadata:
        HANDLER_NAME    : SoundHandler
        VENDOR_ID       : [0][0][0][0]
        ENCODER         : Lavc61.19.100 aac
        BPS             : 193283
        DURATION        : 00:23:46.773000000
        NUMBER_OF_FRAMES: 66881
        NUMBER_OF_BYTES : 34471529
        _STATISTICS_WRITING_APP: mkvpropedit v66.0.0 ('Josie') 64-bit
        _STATISTICS_WRITING_DATE_UTC: 2025-05-10 14:52:30
        _STATISTICS_TAGS: BPS DURATION NUMBER_OF_FRAMES NUMBER_OF_BYTES
Input #1, mov,mp4,m4a,3gp,3g2,mj2, from 'G:\Аниме\Онгоинги\!_35_Лето_2024\DreamCast-1\Самый сильный волшебник армии повелителя демонов оказался человеком\DC_Maou_Gun_Saikyou_no_Majutsushi_wa_Ningen_datta_01_Telegram.mp4':
  Metadata:
    major_brand     : isom
    minor_version   : 512
    compatible_brands: isomiso2avc1mp41
    encoder         : Lavf60.16.100
  Duration: 00:23:46.72, start: 0.000000, bitrate: 3497 kb/s
  Stream #1:0[0x1](und): Video: h264 (High) (avc1 / 0x31637661), yuv420p(tv, bt709, progressive), 1920x1080 [SAR 1:1 DAR 16:9], 3349 kb/s, 23.98 fps, 23.98 tbr, 24k tbn (default)
      Metadata:
        handler_name    : VideoHandler
        vendor_id       : [0][0][0][0]
        encoder         : Lavc60.31.102 h264_qsv
  Stream #1:1[0x2](und): Audio: aac (HE-AACv2) (mp4a / 0x6134706D), 48000 Hz, stereo, fltp, 144 kb/s (default)
      Metadata:
        handler_name    : SoundHandler
        vendor_id       : [0][0][0][0]
Stream mapping:
  Stream #0:0 (hevc) -> settb:default
  Stream #1:0 (h264) -> settb:default
  psnr:default -> Stream #0:0 (wrapped_avframe)
  Stream #0:1 -> #0:1 (aac (native) -> pcm_s16le (native))
Output #0, null, to 'pipe:':
  Metadata:
    COMPATIBLE_BRANDS: isomiso2avc1mp41
    MAJOR_BRAND     : isom
    MINOR_VERSION   : 512
    encoder         : Lavf61.7.100
  Stream #0:0: Video: wrapped_avframe, yuv420p10le(tv, bt709, progressive), 1920x1080 [SAR 1:1 DAR 16:9], q=2-31, 200 kb/s, 23.98 fps, 23.98 tbn
      Metadata:
        encoder         : Lavc61.19.100 wrapped_avframe
  Stream #0:1: Audio: pcm_s16le, 48000 Hz, stereo, s16, 1536 kb/s (default)
      Metadata:
        HANDLER_NAME    : SoundHandler
        VENDOR_ID       : [0][0][0][0]
        _STATISTICS_TAGS: BPS DURATION NUMBER_OF_FRAMES NUMBER_OF_BYTES
        BPS             : 193283
        DURATION        : 00:23:46.773000000
        NUMBER_OF_FRAMES: 66881
        NUMBER_OF_BYTES : 34471529
        _STATISTICS_WRITING_APP: mkvpropedit v66.0.0 ('Josie') 64-bit
        _STATISTICS_WRITING_DATE_UTC: 2025-05-10 14:52:30
        encoder         : Lavc61.19.100 pcm_s16le
frame=  158 fps=0.0 q=-0.0 size=N/A time=00:00:06.58 bitrate=N/A speed=12.7x    frame=  416 fps=403 q=-0.0 size=N/A time=00:00:17.35 bitrate=N/A speed=16.8x    frame=  657 fps=424 q=-0.0 size=N/A time=00:00:27.40 bitrate=N/A speed=17.7x    frame=  854 fps=414 q=-0.0 size=N/A time=00:00:35.61 bitrate=N/A speed=17.2x    frame= 1094 fps=424 q=-0.0 size=N/A time=00:00:45.62 bitrate=N/A speed=17.7x    frame= 1325 fps=428 q=-0.0 size=N/A time=00:00:55.26 bitrate=N/A speed=17.8x    frame= 1554 fps=431 q=-0.0 size=N/A time=00:01:04.81 bitrate=N/A speed=  18x    frame= 1780 fps=432 q=-0.0 size=N/A time=00:01:14.24 bitrate=N/A speed=  18x    frame= 2023 fps=436 q=-0.0 size=N/A time=00:01:24.37 bitrate=N/A speed=18.2x    frame= 2252 fps=436 q=-0.0 size=N/A time=00:01:33.92 bitrate=N/A speed=18.2x    frame= 2483 fps=438 q=-0.0 size=N/A time=00:01:43.56 bitrate=N/A speed=18.3x    frame= 2673 fps=432 q=-0.0 size=N/A time=00:01:51.48 bitrate=N/A speed=  18x    frame= 2872 fps=429 q=-0.0 size=N/A time=00:01:59.78 bitrate=N/A speed=17.9x    frame= 3115 fps=431 q=-0.0 size=N/A time=00:02:09.92 bitrate=N/A speed=  18x    frame= 3338 fps=431 q=-0.0 size=N/A time=00:02:19.22 bitrate=N/A speed=  18x    frame= 3550 fps=429 q=-0.0 size=N/A time=00:02:28.06 bitrate=N/A speed=17.9x    frame= 3746 fps=426 q=-0.0 size=N/A time=00:02:36.23 bitrate=N/A speed=17.8x    frame= 3958 fps=425 q=-0.0 size=N/A time=00:02:45.08 bitrate=N/A speed=17.7x    frame= 4164 fps=423 q=-0.0 size=N/A time=00:02:53.67 bitrate=N/A speed=17.6x    frame= 4409 fps=426 q=-0.0 size=N/A time=00:03:03.89 bitrate=N/A speed=17.7x    frame= 4625 fps=425 q=-0.0 size=N/A time=00:03:12.90 bitrate=N/A speed=17.7x    frame= 4853 fps=426 q=-0.0 size=N/A time=00:03:22.41 bitrate=N/A speed=17.8x    frame= 5103 fps=428 q=-0.0 size=N/A time=00:03:32.83 bitrate=N/A speed=17.9x    frame= 5339 fps=430 q=-0.0 size=N/A time=00:03:42.68 bitrate=N/A speed=17.9x    frame= 5589 fps=432 q=-0.0 size=N/A time=00:03:53.10 bitrate=N/A speed=  18x    frame= 5842 fps=434 q=-0.0 size=N/A time=00:04:03.66 bitrate=N/A speed=18.1x    frame= 6042 fps=432 q=-0.0 size=N/A time=00:04:12.00 bitrate=N/A speed=  18x    frame= 6189 fps=427 q=-0.0 size=N/A time=00:04:18.13 bitrate=N/A speed=17.8x    frame= 6455 fps=430 q=-0.0 size=N/A time=00:04:29.22 bitrate=N/A speed=17.9x    frame= 6687 fps=431 q=-0.0 size=N/A time=00:04:38.90 bitrate=N/A speed=  18x    frame= 6936 fps=433 q=-0.0 size=N/A time=00:04:49.28 bitrate=N/A speed=18.1x    frame= 7158 fps=433 q=-0.0 size=N/A time=00:04:58.54 bitrate=N/A speed=  18x    frame= 7387 fps=433 q=-0.0 size=N/A time=00:05:08.09 bitrate=N/A speed=18.1x    frame= 7625 fps=434 q=-0.0 size=N/A time=00:05:18.02 bitrate=N/A speed=18.1x    frame= 7859 fps=434 q=-0.0 size=N/A time=00:05:27.78 bitrate=N/A speed=18.1x    frame= 8086 fps=434 q=-0.0 size=N/A time=00:05:37.25 bitrate=N/A speed=18.1x    frame= 8341 fps=436 q=-0.0 size=N/A time=00:05:47.88 bitrate=N/A speed=18.2x    frame= 8606 fps=438 q=-0.0 size=N/A time=00:05:58.94 bitrate=N/A speed=18.3x    frame= 8842 fps=439 q=-0.0 size=N/A time=00:06:08.78 bitrate=N/A speed=18.3x    frame= 9086 fps=440 q=-0.0 size=N/A time=00:06:18.96 bitrate=N/A speed=18.3x    frame= 9339 fps=441 q=-0.0 size=N/A time=00:06:29.51 bitrate=N/A speed=18.4x    frame= 9604 fps=442 q=-0.0 size=N/A time=00:06:40.56 bitrate=N/A speed=18.5x    frame= 9850 fps=443 q=-0.0 size=N/A time=00:06:50.82 bitrate=N/A speed=18.5x    frame=10092 fps=444 q=-0.0 size=N/A time=00:07:00.92 bitrate=N/A speed=18.5x    frame=10296 fps=443 q=-0.0 size=N/A time=00:07:09.42 bitrate=N/A speed=18.5x    frame=10535 fps=443 q=-0.0 size=N/A time=00:07:19.39 bitrate=N/A speed=18.5x    frame=10779 fps=444 q=-0.0 size=N/A time=00:07:29.57 bitrate=N/A speed=18.5x    frame=11026 fps=445 q=-0.0 size=N/A time=00:07:39.87 bitrate=N/A speed=18.5x    frame=11285 fps=446 q=-0.0 size=N/A time=00:07:50.67 bitrate=N/A speed=18.6x    frame=11530 fps=446 q=-0.0 size=N/A time=00:08:00.89 bitrate=N/A speed=18.6x    frame=11773 fps=447 q=-0.0 size=N/A time=00:08:11.03 bitrate=N/A speed=18.6x    frame=12017 fps=447 q=-0.0 size=N/A time=00:08:21.20 bitrate=N/A speed=18.7x    frame=12276 fps=448 q=-0.0 size=N/A time=00:08:32.01 bitrate=N/A speed=18.7x    frame=12527 fps=449 q=-0.0 size=N/A time=00:08:42.48 bitrate=N/A speed=18.7x    frame=12732 fps=448 q=-0.0 size=N/A time=00:08:51.03 bitrate=N/A speed=18.7x    frame=12940 fps=447 q=-0.0 size=N/A time=00:08:59.70 bitrate=N/A speed=18.7x    frame=13190 fps=448 q=-0.0 size=N/A time=00:09:10.13 bitrate=N/A speed=18.7x    frame=13454 fps=449 q=-0.0 size=N/A time=00:09:21.14 bitrate=N/A speed=18.7x    frame=13714 fps=450 q=-0.0 size=N/A time=00:09:32.02 bitrate=N/A speed=18.8x    frame=13973 fps=451 q=-0.0 size=N/A time=00:09:42.79 bitrate=N/A speed=18.8x    frame=14244 fps=452 q=-0.0 size=N/A time=00:09:54.09 bitrate=N/A speed=18.9x    frame=14515 fps=453 q=-0.0 size=N/A time=00:10:05.39 bitrate=N/A speed=18.9x    frame=14773 fps=454 q=-0.0 size=N/A time=00:10:16.15 bitrate=N/A speed=18.9x    frame=15035 fps=455 q=-0.0 size=N/A time=00:10:27.08 bitrate=N/A speed=  19x    frame=15288 fps=455 q=-0.0 size=N/A time=00:10:37.63 bitrate=N/A speed=  19x    frame=15536 fps=456 q=-0.0 size=N/A time=00:10:47.98 bitrate=N/A speed=  19x    frame=15771 fps=456 q=-0.0 size=N/A time=00:10:57.78 bitrate=N/A speed=  19x    frame=16020 fps=456 q=-0.0 size=N/A time=00:11:08.16 bitrate=N/A speed=  19x    frame=16271 fps=457 q=-0.0 size=N/A time=00:11:18.63 bitrate=N/A speed=  19x    frame=16509 fps=457 q=-0.0 size=N/A time=00:11:28.56 bitrate=N/A speed=19.1x    frame=16754 fps=457 q=-0.0 size=N/A time=00:11:38.78 bitrate=N/A speed=19.1x    frame=16981 fps=457 q=-0.0 size=N/A time=00:11:48.24 bitrate=N/A speed=19.1x    frame=17210 fps=457 q=-0.0 size=N/A time=00:11:57.80 bitrate=N/A speed=  19x    frame=17459 fps=457 q=-0.0 size=N/A time=00:12:08.18 bitrate=N/A speed=19.1x    frame=17699 fps=457 q=-0.0 size=N/A time=00:12:18.19 bitrate=N/A speed=19.1x    frame=17928 fps=457 q=-0.0 size=N/A time=00:12:27.74 bitrate=N/A speed=19.1x    frame=18175 fps=457 q=-0.0 size=N/A time=00:12:38.04 bitrate=N/A speed=19.1x    frame=18398 fps=457 q=-0.0 size=N/A time=00:12:47.34 bitrate=N/A speed=19.1x    frame=18643 fps=457 q=-0.0 size=N/A time=00:12:57.56 bitrate=N/A speed=19.1x    frame=18888 fps=457 q=-0.0 size=N/A time=00:13:07.78 bitrate=N/A speed=19.1x    frame=19134 fps=458 q=-0.0 size=N/A time=00:13:18.04 bitrate=N/A speed=19.1x    frame=19373 fps=458 q=-0.0 size=N/A time=00:13:28.01 bitrate=N/A speed=19.1x    frame=19623 fps=458 q=-0.0 size=N/A time=00:13:38.44 bitrate=N/A speed=19.1x    frame=19867 fps=458 q=-0.0 size=N/A time=00:13:48.61 bitrate=N/A speed=19.1x    frame=20080 fps=458 q=-0.0 size=N/A time=00:13:57.50 bitrate=N/A speed=19.1x    frame=20259 fps=456 q=-0.0 size=N/A time=00:14:04.96 bitrate=N/A speed=  19x    frame=20467 fps=456 q=-0.0 size=N/A time=00:14:13.64 bitrate=N/A speed=  19x    frame=20693 fps=456 q=-0.0 size=N/A time=00:14:23.07 bitrate=N/A speed=  19x    frame=20926 fps=456 q=-0.0 size=N/A time=00:14:32.78 bitrate=N/A speed=  19x    frame=21179 fps=456 q=-0.0 size=N/A time=00:14:43.34 bitrate=N/A speed=  19x    frame=21443 fps=457 q=-0.0 size=N/A time=00:14:54.35 bitrate=N/A speed=  19x    frame=21695 fps=457 q=-0.0 size=N/A time=00:15:04.86 bitrate=N/A speed=19.1x    frame=21959 fps=457 q=-0.0 size=N/A time=00:15:15.87 bitrate=N/A speed=19.1x    frame=22211 fps=458 q=-0.0 size=N/A time=00:15:26.38 bitrate=N/A speed=19.1x    frame=22483 fps=459 q=-0.0 size=N/A time=00:15:37.72 bitrate=N/A speed=19.1x    frame=22735 fps=459 q=-0.0 size=N/A time=00:15:48.23 bitrate=N/A speed=19.1x    frame=22982 fps=459 q=-0.0 size=N/A time=00:15:58.54 bitrate=N/A speed=19.1x    frame=23224 fps=459 q=-0.0 size=N/A time=00:16:08.63 bitrate=N/A speed=19.2x    frame=23473 fps=459 q=-0.0 size=N/A time=00:16:19.01 bitrate=N/A speed=19.2x    frame=23720 fps=460 q=-0.0 size=N/A time=00:16:29.32 bitrate=N/A speed=19.2x    frame=23964 fps=460 q=-0.0 size=N/A time=00:16:39.49 bitrate=N/A speed=19.2x    frame=24216 fps=460 q=-0.0 size=N/A time=00:16:50.00 bitrate=N/A speed=19.2x    frame=24441 fps=460 q=-0.0 size=N/A time=00:16:59.39 bitrate=N/A speed=19.2x    frame=24654 fps=459 q=-0.0 size=N/A time=00:17:08.27 bitrate=N/A speed=19.2x    frame=24919 fps=460 q=-0.0 size=N/A time=00:17:19.32 bitrate=N/A speed=19.2x    frame=25165 fps=460 q=-0.0 size=N/A time=00:17:29.59 bitrate=N/A speed=19.2x    frame=25434 fps=461 q=-0.0 size=N/A time=00:17:40.80 bitrate=N/A speed=19.2x    frame=25676 fps=461 q=-0.0 size=N/A time=00:17:50.90 bitrate=N/A speed=19.2x    frame=25953 fps=461 q=-0.0 size=N/A time=00:18:02.45 bitrate=N/A speed=19.2x    frame=26185 fps=461 q=-0.0 size=N/A time=00:18:12.13 bitrate=N/A speed=19.2x    frame=26443 fps=462 q=-0.0 size=N/A time=00:18:22.89 bitrate=N/A speed=19.3x    frame=26696 fps=462 q=-0.0 size=N/A time=00:18:33.44 bitrate=N/A speed=19.3x    frame=26962 fps=462 q=-0.0 size=N/A time=00:18:44.54 bitrate=N/A speed=19.3x    frame=27214 fps=462 q=-0.0 size=N/A time=00:18:55.05 bitrate=N/A speed=19.3x    frame=27468 fps=463 q=-0.0 size=N/A time=00:19:05.64 bitrate=N/A speed=19.3x    frame=27717 fps=463 q=-0.0 size=N/A time=00:19:16.02 bitrate=N/A speed=19.3x    frame=27939 fps=462 q=-0.0 size=N/A time=00:19:25.28 bitrate=N/A speed=19.3x    frame=28179 fps=463 q=-0.0 size=N/A time=00:19:35.29 bitrate=N/A speed=19.3x    frame=28448 fps=463 q=-0.0 size=N/A time=00:19:46.51 bitrate=N/A speed=19.3x    frame=28680 fps=463 q=-0.0 size=N/A time=00:19:56.19 bitrate=N/A speed=19.3x    frame=28907 fps=463 q=-0.0 size=N/A time=00:20:05.66 bitrate=N/A speed=19.3x    frame=29120 fps=462 q=-0.0 size=N/A time=00:20:14.54 bitrate=N/A speed=19.3x    frame=29344 fps=462 q=-0.0 size=N/A time=00:20:23.88 bitrate=N/A speed=19.3x    frame=29592 fps=462 q=-0.0 size=N/A time=00:20:34.23 bitrate=N/A speed=19.3x    frame=29834 fps=462 q=-0.0 size=N/A time=00:20:44.32 bitrate=N/A speed=19.3x    frame=30054 fps=462 q=-0.0 size=N/A time=00:20:53.50 bitrate=N/A speed=19.3x    frame=30276 fps=462 q=-0.0 size=N/A time=00:21:02.76 bitrate=N/A speed=19.3x    frame=30519 fps=462 q=-0.0 size=N/A time=00:21:12.89 bitrate=N/A speed=19.3x    frame=30753 fps=462 q=-0.0 size=N/A time=00:21:22.65 bitrate=N/A speed=19.3x    frame=31001 fps=462 q=-0.0 size=N/A time=00:21:33.00 bitrate=N/A speed=19.3x    frame=31207 fps=461 q=-0.0 size=N/A time=00:21:41.59 bitrate=N/A speed=19.2x    frame=31360 fps=460 q=-0.0 size=N/A time=00:21:47.97 bitrate=N/A speed=19.2x    frame=31575 fps=460 q=-0.0 size=N/A time=00:21:56.94 bitrate=N/A speed=19.2x    frame=31784 fps=459 q=-0.0 size=N/A time=00:22:05.65 bitrate=N/A speed=19.2x    frame=31978 fps=459 q=-0.0 size=N/A time=00:22:13.74 bitrate=N/A speed=19.1x    frame=32151 fps=458 q=-0.0 size=N/A time=00:22:20.96 bitrate=N/A speed=19.1x    frame=32337 fps=457 q=-0.0 size=N/A time=00:22:28.72 bitrate=N/A speed=19.1x    frame=32526 fps=457 q=-0.0 size=N/A time=00:22:36.60 bitrate=N/A speed=  19x    frame=32720 fps=456 q=-0.0 size=N/A time=00:22:44.69 bitrate=N/A speed=  19x    frame=32912 fps=455 q=-0.0 size=N/A time=00:22:52.70 bitrate=N/A speed=  19x    frame=33083 fps=455 q=-0.0 size=N/A time=00:22:59.83 bitrate=N/A speed=  19x    frame=33269 fps=454 q=-0.0 size=N/A time=00:23:07.59 bitrate=N/A speed=18.9x    frame=33443 fps=453 q=-0.0 size=N/A time=00:23:14.85 bitrate=N/A speed=18.9x    frame=33609 fps=452 q=-0.0 size=N/A time=00:23:21.77 bitrate=N/A speed=18.9x    frame=33803 fps=452 q=-0.0 size=N/A time=00:23:29.86 bitrate=N/A speed=18.8x    frame=33999 fps=451 q=-0.0 size=N/A time=00:23:38.04 bitrate=N/A speed=18.8x    [Parsed_psnr_10 @ 0000028a609ffbc0] PSNR y:50.752312 u:50.951211 v:51.376663 average:50.883604 min:40.904990 max:inf
[out#0/null @ 0000028a54395f00] video:14697KiB audio:267524KiB subtitle:0KiB other streams:0KiB global headers:0KiB muxing overhead: unknown
frame=34204 fps=451 q=-0.0 Lsize=N/A time=00:23:46.59 bitrate=N/A speed=18.8x    
